<svg width="604" height="708" fill="none" xmlns="http://www.w3.org/2000/svg"><path d="M508.61 193.039v225.212c0 69.798-49.055 128.213-114.103 141.798-8.029-26.224-32.184-45.278-60.734-45.278H143.044v48.258H.024v96.522h143.02v48.261h190.729c30.327 0 55.65-21.511 62.001-50.268 117.236-15.083 208.2-116.602 208.2-239.293V193.039H508.61Z" fill="url(#a)"/><path d="M270.199 0c-30.328 0-55.653 21.509-62.004 50.266C90.961 65.352 0 166.87 0 289.56v225.21h95.364v-225.21c0-69.798 49.055-128.215 114.097-141.797 8.032 26.227 32.185 45.275 60.738 45.275h190.728V144.78H604V48.258H460.927V0H270.199Z" fill="url(#b)"/><defs><linearGradient id="a" x1="92.203" y1="752.846" x2="631.052" y2="220.445" gradientUnits="userSpaceOnUse"><stop stop-color="#3264FF"/><stop offset="1" stop-color="#327DFF"/></linearGradient><linearGradient id="b" x1="-20.655" y1="493.866" x2="518.22" y2="-38.56" gradientUnits="userSpaceOnUse"><stop stop-color="#00E1FF"/><stop offset="1" stop-color="#00C8FF"/></linearGradient></defs></svg>