<svg width="1400" height="1400" fill="none" xmlns="http://www.w3.org/2000/svg"><circle cx="700" cy="700" r="700" fill="#000"/><path d="M1015.42 454.306v343.358c0 106.413-74.785 195.472-173.956 216.186-12.242-39.984-49.069-69.033-92.596-69.033H458.084v73.573H240.036v147.16h218.048v73.58h290.784c46.237 0 84.843-32.8 94.526-76.64 178.736-23 317.416-177.773 317.416-364.826V454.306h-145.39Z" fill="url(#a)"/><path d="M651.943 160c-46.237 0-84.848 32.792-94.531 76.635C378.678 259.635 240 414.409 240 601.463v343.354h145.392V601.463c0-106.413 74.788-195.476 173.951-216.183 12.246 39.985 49.068 69.026 92.6 69.026h290.784v-73.574h218.123V233.574H942.727V160H651.943Z" fill="url(#b)"/><defs><linearGradient id="a" x1="380.572" y1="1307.78" x2="1202.1" y2="496.09" gradientUnits="userSpaceOnUse"><stop stop-color="#3264FF"/><stop offset="1" stop-color="#327DFF"/></linearGradient><linearGradient id="b" x1="208.51" y1="912.945" x2="1030.07" y2="101.212" gradientUnits="userSpaceOnUse"><stop stop-color="#00E1FF"/><stop offset="1" stop-color="#00C8FF"/></linearGradient></defs></svg>